# xmcd
#
# Track frame offsets: 
#        150
#        16489
#        31993
#        47606
#        63084
#        79676
#        93193
#        108979
#        122235
#        136214
#        150396
#        164177
#
# Disc length: 2372 seconds
#
# Revision: 2
# Processed by: cddbd v1.5.2PL0 Copyright (c) Steve Scherf et al.
# Submitted via: ExactAudioCopy v0.99pb5
#
DISCID=9009420c
DTITLE=Nina Zilli - L'amore è femmina
DYEAR=2012
DGENRE=Soul
TTITLE0=Per le strade
TTITLE1=Per sempre
TTITLE2=Una notte
TTITLE3=L'inverno all'improvviso
TTITLE4=La felicità
TTITLE5=L'amore è femmina
TTITLE6=Piangono le viole
TTITLE7=Non qui
TTITLE8=La casa sull'albero
TTITLE9=Anna
TTITLE10=Un'altra estate
TTITLE11=Lasciatemi dormire
EXTD=
EXTT0=
EXTT1=
EXTT2=
EXTT3=
EXTT4=
EXTT5=
EXTT6=
EXTT7=
EXTT8=
EXTT9=
EXTT10=
EXTT11=
PLAYORDER=
